<?xml version="1.0" encoding="utf-8"?>
<!-- Generator: Adobe Illustrator 24.3.0, SVG Export Plug-In . SVG Version: 6.00 Build 0)  -->
<svg version="1.1" id="Layer_1" xmlns="http://www.w3.org/2000/svg" xmlns:xlink="http://www.w3.org/1999/xlink" x="0px" y="0px"
	 viewBox="0 0 624 107" style="enable-background:new 0 0 624 107;" xml:space="preserve">
<style type="text/css">
	.st0{stroke:#000000;stroke-width:0.5;stroke-miterlimit:10;}
	.st1{fill:#6E8390;stroke:#6E8390;stroke-width:0.5;stroke-miterlimit:10;}
	.st2{fill:#B1B2B5;stroke:#B1B2B5;stroke-width:0.5;stroke-miterlimit:10;}
	.st3{fill:#0E0E1C;stroke:#0E0E1C;stroke-width:0.5;stroke-miterlimit:10;}
	.st4{fill:#814834;stroke:#814834;stroke-width:0.5;stroke-miterlimit:10;}
	.st5{fill:none;}
	.st6{font-family:'MyriadPro-Regular';}
	.st7{font-size:32px;}
</style>
<g>
	<path class="st0" d="M62.8-125.9c-4.2-2.9-9-4.2-14.2-4.2c-3.1,0-6.2,0.5-9.2,1.6c-8.7,3.3-14.8,12.5-14.8,22.6
		c0,5.6,1.8,11.2,5.6,15.6c4.2,5,11.4,7.9,18.4,7.9c3.3,0,6.6-0.7,9.4-2.1c1.8-0.9,3.3-1.9,4.8-3.2c0.3-0.2,0.6,0.1,0.4,0.4
		c-1.6,1.3-3.1,2.4-5,3.3c-2.9,1.5-6.2,2.1-9.6,2.1c-7.1,0-14.5-3-18.9-8.1c-3.8-4.5-5.7-10.2-5.7-16c0-9.7,5.6-19.5,15.1-23.2
		c3.1-1.1,6.2-1.6,9.4-1.6c5.3,0,10.2,1.4,14.5,4.4C63.3-126.2,63.1-125.8,62.8-125.9z"/>
	<path class="st0" d="M69-82.8c-0.2,0.4-0.7,0.2-0.5-0.2l19.2-46.8c0.1-0.3,0.5-0.3,0.6,0L107.5-83c0.1,0.4-0.4,0.6-0.6,0.2L99-102
		H76.9L69-82.8z M77.1-102.6h21.6L88-129.1L77.1-102.6z"/>
	<path class="st0" d="M117-129.9c0-0.2,0.1-0.3,0.3-0.3h5.7c10.2,0,16,4.6,16,12.8c0,6-3.1,10.8-8.4,12.6l21.1,21.6
		c0.3,0.3-0.2,0.7-0.5,0.4L130-104.6c-0.3-0.3-0.1-0.5,0.1-0.6c5.6-1.9,8.4-6.7,8.4-12c0-8.2-6.1-12.4-15.4-12.4h-5.4v46.7
		c0,0.2-0.1,0.3-0.3,0.3c-0.2,0-0.3-0.1-0.3-0.3V-129.9z"/>
	<path class="st0" d="M177.1-130.8c14,0.1,24,9,24.3,23.4c0.2,14-9.8,25.4-24.6,25.4c-16.9,0.1-24-13.1-24-24.4
		C152.9-116.2,160.1-130.8,177.1-130.8z M176.8-82.6c14.5-0.1,24.3-11.1,24-24.8c-0.3-13.9-10-22.7-23.7-22.8
		c-16.6-0.1-23.7,14.2-23.7,23.7C153.3-95.4,160.4-82.5,176.8-82.6z"/>
	<path class="st0" d="M234-83.2c0.2,0,0.3,0.1,0.3,0.3s-0.1,0.3-0.3,0.3h-21.5c-0.2,0-0.3-0.1-0.3-0.3v-47c0-0.2,0.1-0.3,0.3-0.3
		c0.2,0,0.3,0.1,0.3,0.3v46.7H234z"/>
	<path class="st0" d="M243.5-129.9c0-0.2,0.1-0.3,0.3-0.3c0.2,0,0.3,0.1,0.3,0.3v47c0,0.2-0.1,0.3-0.3,0.3c-0.2,0-0.3-0.1-0.3-0.3
		V-129.9z"/>
	<path class="st0" d="M300.3-129.9c0-0.2,0.1-0.3,0.3-0.3c0.2,0,0.3,0.1,0.3,0.3V-83c0,0.2-0.1,0.4-0.3,0.4c-0.1,0-0.2-0.1-0.4-0.2
		L261-129.1v46.2c0,0.2-0.1,0.3-0.3,0.3c-0.2,0-0.3-0.1-0.3-0.3v-47c0-0.2,0.1-0.3,0.3-0.3c0.2,0,0.2,0.1,0.4,0.2l39.2,46.3V-129.9z
		"/>
	<path class="st0" d="M335.5-130.2c0.2,0,0.3,0.1,0.3,0.3c0,0.2-0.1,0.3-0.3,0.3h-21.3v22.9h16.9c0.2,0,0.3,0.1,0.3,0.3
		c0,0.2-0.1,0.3-0.3,0.3h-16.9v22.9h21.3c0.2,0,0.3,0.1,0.3,0.3s-0.1,0.3-0.3,0.3h-21.6c-0.2,0-0.3-0.1-0.3-0.3v-46.9
		c0-0.2,0.1-0.4,0.4-0.4H335.5z"/>
	<path class="st0" d="M361.5-82.6c-0.2,0-0.4-0.2-0.4-0.4v-46.8c0.1-0.2,0.1-0.3,0.4-0.3h5.9c9.3,0,16,3,16,11.7
		c0,4.7-2.4,9.1-6.8,11.1c5.9,1.1,11.1,5.4,11.1,11.5c0,9.8-7.7,13.3-16.5,13.3H361.5z M361.7-107.5h14c4.5-2.1,7-6.2,7-11
		c0-9.3-7.8-11.1-15.5-11.1h-5.5V-107.5z M375.5-106.9h-13.8v23.7h9.4c8.2,0,15.9-3.3,15.9-12.3C387-101.9,381.6-106.1,375.5-106.9z
		"/>
	<path class="st0" d="M420.2-130.8c14,0.1,24,9,24.3,23.4c0.2,14-9.8,25.4-24.6,25.4c-16.9,0.1-24-13.1-24-24.4
		C395.9-116.2,403.1-130.8,420.2-130.8z M419.8-82.6c14.5-0.1,24.3-11.1,24-24.8c-0.3-13.9-10-22.7-23.7-22.8
		c-16.6-0.1-23.7,14.2-23.7,23.7C396.4-95.4,403.4-82.5,419.8-82.6z"/>
	<path class="st0" d="M452-87.4c2.5,2.7,6.4,4.7,10,4.7c6.3,0,10.9-4.2,10.9-10.7c0-11.9-19.8-14.5-19.8-27.1
		c0-6.7,5.3-10.2,10.2-10.2c3.6,0,7.6,1.3,10,4.5c0.3,0.4-0.2,0.7-0.5,0.4c-2.3-3.2-6.4-4.4-9.6-4.4c-5.5,0-9.5,4.2-9.5,9.6
		c0,12.3,19.8,14.8,19.8,27.1c0,7.4-5.3,11.4-11.5,11.4c-3.8,0-7.6-1.8-10.5-4.9C451.2-87.3,451.7-87.7,452-87.4z"/>
	<path class="st0" d="M506-130.2c0.2,0,0.3,0.1,0.3,0.3c0,0.2-0.1,0.3-0.3,0.3h-21.3v22.9h16.9c0.2,0,0.3,0.1,0.3,0.3
		c0,0.2-0.1,0.3-0.3,0.3h-16.9v22.9H506c0.2,0,0.3,0.1,0.3,0.3s-0.1,0.3-0.3,0.3h-21.6c-0.2,0-0.3-0.1-0.3-0.3v-46.9
		c0-0.2,0.1-0.4,0.4-0.4H506z"/>
	<path class="st0" d="M538.6-83.2c0.2,0,0.3,0.1,0.3,0.3s-0.1,0.3-0.3,0.3h-21.5c-0.2,0-0.3-0.1-0.3-0.3v-47c0-0.2,0.1-0.3,0.3-0.3
		c0.2,0,0.3,0.1,0.3,0.3v46.7H538.6z"/>
	<path class="st0" d="M566.4-130.2c0.2,0,0.3,0.1,0.3,0.3c0,0.2-0.1,0.3-0.3,0.3h-21.3v22.9H562c0.2,0,0.3,0.1,0.3,0.3
		c0,0.2-0.1,0.3-0.3,0.3h-16.9v22.9h21.3c0.2,0,0.3,0.1,0.3,0.3s-0.1,0.3-0.3,0.3h-21.6c-0.2,0-0.3-0.1-0.3-0.3v-46.9
		c0-0.2,0.1-0.4,0.4-0.4H566.4z"/>
	<path class="st0" d="M588.3-102.2l-14.9-27.5c-0.2-0.4,0.4-0.7,0.5-0.3l14.6,27.1l14.8-27.1c0.2-0.4,0.8-0.1,0.5,0.3l-15.1,27.4
		v19.4c0,0.2-0.1,0.3-0.3,0.3c-0.2,0-0.3-0.1-0.3-0.3V-102.2z"/>
</g>
<g>
	<path class="st1" d="M62.5,33.9c-4.2-2.9-9-4.2-14.2-4.2c-3.1,0-6.2,0.5-9.2,1.6C30.3,34.6,24.3,43.8,24.3,54
		c0,5.6,1.8,11.2,5.6,15.6c4.2,5,11.4,7.9,18.4,7.9c3.3,0,6.6-0.7,9.4-2.1c1.8-0.9,3.3-1.9,4.8-3.2c0.3-0.2,0.6,0.1,0.4,0.4
		c-1.6,1.3-3.1,2.4-5,3.3C55,77.4,51.6,78,48.2,78c-7.1,0-14.5-3-18.9-8.1c-3.8-4.5-5.7-10.2-5.7-16c0-9.7,5.6-19.5,15.1-23.2
		c3.1-1.1,6.2-1.6,9.4-1.6c5.3,0,10.2,1.4,14.5,4.4C63,33.7,62.8,34,62.5,33.9z"/>
	<path class="st1" d="M68.7,77c-0.2,0.4-0.7,0.2-0.5-0.2l19.2-46.8c0.1-0.3,0.5-0.3,0.6,0l19.1,46.9c0.1,0.4-0.4,0.6-0.6,0.2
		l-7.8-19.2H76.6L68.7,77z M76.8,57.2h21.6L87.7,30.8L76.8,57.2z"/>
	<path class="st1" d="M116.6,30c0-0.2,0.1-0.3,0.3-0.3h5.7c10.2,0,16,4.6,16,12.8c0,6-3.1,10.8-8.4,12.6l21.1,21.6
		c0.3,0.3-0.2,0.7-0.5,0.4l-21.2-21.8c-0.3-0.3-0.1-0.5,0.1-0.6c5.6-1.9,8.4-6.7,8.4-12c0-8.2-6.1-12.4-15.4-12.4h-5.4v46.7
		c0,0.2-0.1,0.3-0.3,0.3c-0.2,0-0.3-0.1-0.3-0.3V30z"/>
	<path class="st1" d="M176.8,29.1c14,0.1,24,9,24.3,23.4c0.2,14-9.8,25.4-24.6,25.4c-16.9,0.1-24-13.1-24-24.4
		C152.5,43.6,159.7,29,176.8,29.1z M176.4,77.3c14.5-0.1,24.3-11.1,24-24.8c-0.3-13.9-10-22.7-23.7-22.8
		c-16.6-0.1-23.7,14.2-23.7,23.7C153,64.4,160,77.3,176.4,77.3z"/>
	<path class="st1" d="M233.6,76.6c0.2,0,0.3,0.1,0.3,0.3s-0.1,0.3-0.3,0.3h-21.5c-0.2,0-0.3-0.1-0.3-0.3V30c0-0.2,0.1-0.3,0.3-0.3
		c0.2,0,0.3,0.1,0.3,0.3v46.7H233.6z"/>
	<path class="st1" d="M243.1,30c0-0.2,0.1-0.3,0.3-0.3c0.2,0,0.3,0.1,0.3,0.3v47c0,0.2-0.1,0.3-0.3,0.3c-0.2,0-0.3-0.1-0.3-0.3V30z"
		/>
	<path class="st1" d="M300,30c0-0.2,0.1-0.3,0.3-0.3c0.2,0,0.3,0.1,0.3,0.3v46.9c0,0.2-0.1,0.4-0.3,0.4c-0.1,0-0.2-0.1-0.4-0.2
		l-39.2-46.2v46.2c0,0.2-0.1,0.3-0.3,0.3c-0.2,0-0.3-0.1-0.3-0.3V30c0-0.2,0.1-0.3,0.3-0.3c0.2,0,0.2,0.1,0.4,0.2L300,76.2V30z"/>
	<path class="st1" d="M335.2,29.7c0.2,0,0.3,0.1,0.3,0.3c0,0.2-0.1,0.3-0.3,0.3h-21.3v22.9h16.9c0.2,0,0.3,0.1,0.3,0.3
		c0,0.2-0.1,0.3-0.3,0.3h-16.9v22.9h21.3c0.2,0,0.3,0.1,0.3,0.3s-0.1,0.3-0.3,0.3h-21.6c-0.2,0-0.3-0.1-0.3-0.3V30
		c0-0.2,0.1-0.4,0.4-0.4H335.2z"/>
	<path class="st1" d="M361.2,77.3c-0.2,0-0.4-0.2-0.4-0.4V30c0.1-0.2,0.1-0.3,0.4-0.3h5.9c9.3,0,16,3,16,11.7
		c0,4.7-2.4,9.1-6.8,11.1c5.9,1.1,11.1,5.4,11.1,11.5c0,9.8-7.7,13.3-16.5,13.3H361.2z M361.4,52.3h14c4.5-2.1,7-6.2,7-11
		c0-9.3-7.8-11.1-15.5-11.1h-5.5V52.3z M375.2,52.9h-13.8v23.7h9.4c8.2,0,15.9-3.3,15.9-12.3C386.7,57.9,381.3,53.8,375.2,52.9z"/>
	<path class="st1" d="M419.9,29.1c14,0.1,24,9,24.3,23.4c0.2,14-9.8,25.4-24.6,25.4c-16.9,0.1-24-13.1-24-24.4
		C395.6,43.6,402.8,29,419.9,29.1z M419.5,77.3c14.5-0.1,24.3-11.1,24-24.8c-0.3-13.9-10-22.7-23.7-22.8
		c-16.6-0.1-23.7,14.2-23.7,23.7C396.1,64.4,403.1,77.3,419.5,77.3z"/>
	<path class="st1" d="M451.7,72.5c2.5,2.7,6.4,4.7,10,4.7c6.3,0,10.9-4.2,10.9-10.7c0-11.9-19.8-14.5-19.8-27.1
		c0-6.7,5.3-10.2,10.2-10.2c3.6,0,7.6,1.3,10,4.5c0.3,0.4-0.2,0.7-0.5,0.4c-2.3-3.2-6.4-4.4-9.6-4.4c-5.5,0-9.5,4.2-9.5,9.6
		c0,12.3,19.8,14.8,19.8,27.1c0,7.4-5.3,11.4-11.5,11.4c-3.8,0-7.6-1.8-10.5-4.9C450.9,72.5,451.3,72.2,451.7,72.5z"/>
	<path class="st1" d="M505.7,29.7c0.2,0,0.3,0.1,0.3,0.3c0,0.2-0.1,0.3-0.3,0.3h-21.3v22.9h16.9c0.2,0,0.3,0.1,0.3,0.3
		c0,0.2-0.1,0.3-0.3,0.3h-16.9v22.9h21.3c0.2,0,0.3,0.1,0.3,0.3s-0.1,0.3-0.3,0.3h-21.6c-0.2,0-0.3-0.1-0.3-0.3V30
		c0-0.2,0.1-0.4,0.4-0.4H505.7z"/>
	<path class="st1" d="M538.3,76.6c0.2,0,0.3,0.1,0.3,0.3s-0.1,0.3-0.3,0.3h-21.5c-0.2,0-0.3-0.1-0.3-0.3V30c0-0.2,0.1-0.3,0.3-0.3
		c0.2,0,0.3,0.1,0.3,0.3v46.7H538.3z"/>
	<path class="st1" d="M566,29.7c0.2,0,0.3,0.1,0.3,0.3c0,0.2-0.1,0.3-0.3,0.3h-21.3v22.9h16.9c0.2,0,0.3,0.1,0.3,0.3
		c0,0.2-0.1,0.3-0.3,0.3h-16.9v22.9H566c0.2,0,0.3,0.1,0.3,0.3s-0.1,0.3-0.3,0.3h-21.6c-0.2,0-0.3-0.1-0.3-0.3V30
		c0-0.2,0.1-0.4,0.4-0.4H566z"/>
	<path class="st1" d="M587.9,57.6l-14.9-27.5c-0.2-0.4,0.4-0.7,0.5-0.3l14.6,27.1l14.8-27.1c0.2-0.4,0.8-0.1,0.5,0.3l-15.1,27.4
		v19.4c0,0.2-0.1,0.3-0.3,0.3c-0.2,0-0.3-0.1-0.3-0.3V57.6z"/>
</g>
<g>
	<path class="st2" d="M62.5,169.9c-4.2-2.9-9-4.2-14.2-4.2c-3.1,0-6.2,0.5-9.2,1.6c-8.7,3.3-14.8,12.5-14.8,22.6
		c0,5.6,1.8,11.2,5.6,15.6c4.2,5,11.4,7.9,18.4,7.9c3.3,0,6.6-0.7,9.4-2.1c1.8-0.9,3.3-1.9,4.8-3.2c0.3-0.2,0.6,0.1,0.4,0.4
		c-1.6,1.3-3.1,2.4-5,3.3c-2.9,1.5-6.2,2.1-9.6,2.1c-7.1,0-14.5-3-18.9-8.1c-3.8-4.5-5.7-10.2-5.7-16c0-9.7,5.6-19.5,15.1-23.2
		c3.1-1.1,6.2-1.6,9.4-1.6c5.3,0,10.2,1.4,14.5,4.4C63,169.7,62.8,170,62.5,169.9z"/>
	<path class="st2" d="M68.7,213c-0.2,0.4-0.7,0.2-0.5-0.2l19.2-46.8c0.1-0.3,0.5-0.3,0.6,0l19.1,46.9c0.1,0.4-0.4,0.6-0.6,0.2
		l-7.8-19.2H76.6L68.7,213z M76.8,193.2h21.6l-10.7-26.4L76.8,193.2z"/>
	<path class="st2" d="M116.6,166c0-0.2,0.1-0.3,0.3-0.3h5.7c10.2,0,16,4.6,16,12.8c0,6-3.1,10.8-8.4,12.6l21.1,21.6
		c0.3,0.3-0.2,0.7-0.5,0.4l-21.2-21.8c-0.3-0.3-0.1-0.5,0.1-0.6c5.6-1.9,8.4-6.7,8.4-12c0-8.2-6.1-12.4-15.4-12.4h-5.4v46.7
		c0,0.2-0.1,0.3-0.3,0.3c-0.2,0-0.3-0.1-0.3-0.3V166z"/>
	<path class="st2" d="M176.8,165.1c14,0.1,24,9,24.3,23.4c0.2,14-9.8,25.4-24.6,25.4c-16.9,0.1-24-13.1-24-24.4
		C152.5,179.6,159.7,165,176.8,165.1z M176.4,213.3c14.5-0.1,24.3-11.1,24-24.8c-0.3-13.9-10-22.7-23.7-22.8
		c-16.6-0.1-23.7,14.2-23.7,23.7C153,200.4,160,213.3,176.4,213.3z"/>
	<path class="st2" d="M233.6,212.6c0.2,0,0.3,0.1,0.3,0.3c0,0.2-0.1,0.3-0.3,0.3h-21.5c-0.2,0-0.3-0.1-0.3-0.3v-47
		c0-0.2,0.1-0.3,0.3-0.3c0.2,0,0.3,0.1,0.3,0.3v46.7H233.6z"/>
	<path class="st2" d="M243.1,166c0-0.2,0.1-0.3,0.3-0.3c0.2,0,0.3,0.1,0.3,0.3v47c0,0.2-0.1,0.3-0.3,0.3c-0.2,0-0.3-0.1-0.3-0.3V166
		z"/>
	<path class="st2" d="M300,166c0-0.2,0.1-0.3,0.3-0.3c0.2,0,0.3,0.1,0.3,0.3v46.9c0,0.2-0.1,0.4-0.3,0.4c-0.1,0-0.2-0.1-0.4-0.2
		l-39.2-46.2v46.2c0,0.2-0.1,0.3-0.3,0.3c-0.2,0-0.3-0.1-0.3-0.3v-47c0-0.2,0.1-0.3,0.3-0.3c0.2,0,0.2,0.1,0.4,0.2l39.2,46.3V166z"
		/>
	<path class="st2" d="M335.2,165.7c0.2,0,0.3,0.1,0.3,0.3c0,0.2-0.1,0.3-0.3,0.3h-21.3v22.9h16.9c0.2,0,0.3,0.1,0.3,0.3
		c0,0.2-0.1,0.3-0.3,0.3h-16.9v22.9h21.3c0.2,0,0.3,0.1,0.3,0.3c0,0.2-0.1,0.3-0.3,0.3h-21.6c-0.2,0-0.3-0.1-0.3-0.3V166
		c0-0.2,0.1-0.4,0.4-0.4H335.2z"/>
	<path class="st2" d="M361.2,213.3c-0.2,0-0.4-0.2-0.4-0.4V166c0.1-0.2,0.1-0.3,0.4-0.3h5.9c9.3,0,16,3,16,11.7
		c0,4.7-2.4,9.1-6.8,11.1c5.9,1.1,11.1,5.4,11.1,11.5c0,9.8-7.7,13.3-16.5,13.3H361.2z M361.4,188.3h14c4.5-2.1,7-6.2,7-11
		c0-9.3-7.8-11.1-15.5-11.1h-5.5V188.3z M375.2,188.9h-13.8v23.7h9.4c8.2,0,15.9-3.3,15.9-12.3C386.7,193.9,381.3,189.8,375.2,188.9
		z"/>
	<path class="st2" d="M419.9,165.1c14,0.1,24,9,24.3,23.4c0.2,14-9.8,25.4-24.6,25.4c-16.9,0.1-24-13.1-24-24.4
		C395.6,179.6,402.8,165,419.9,165.1z M419.5,213.3c14.5-0.1,24.3-11.1,24-24.8c-0.3-13.9-10-22.7-23.7-22.8
		c-16.6-0.1-23.7,14.2-23.7,23.7C396.1,200.4,403.1,213.3,419.5,213.3z"/>
	<path class="st2" d="M451.7,208.5c2.5,2.7,6.4,4.7,10,4.7c6.3,0,10.9-4.2,10.9-10.7c0-11.9-19.8-14.5-19.8-27.1
		c0-6.7,5.3-10.2,10.2-10.2c3.6,0,7.6,1.3,10,4.5c0.3,0.4-0.2,0.7-0.5,0.4c-2.3-3.2-6.4-4.4-9.6-4.4c-5.5,0-9.5,4.2-9.5,9.6
		c0,12.3,19.8,14.8,19.8,27.1c0,7.4-5.3,11.4-11.5,11.4c-3.8,0-7.6-1.8-10.5-4.9C450.9,208.5,451.3,208.2,451.7,208.5z"/>
	<path class="st2" d="M505.7,165.7c0.2,0,0.3,0.1,0.3,0.3c0,0.2-0.1,0.3-0.3,0.3h-21.3v22.9h16.9c0.2,0,0.3,0.1,0.3,0.3
		c0,0.2-0.1,0.3-0.3,0.3h-16.9v22.9h21.3c0.2,0,0.3,0.1,0.3,0.3c0,0.2-0.1,0.3-0.3,0.3h-21.6c-0.2,0-0.3-0.1-0.3-0.3V166
		c0-0.2,0.1-0.4,0.4-0.4H505.7z"/>
	<path class="st2" d="M538.3,212.6c0.2,0,0.3,0.1,0.3,0.3c0,0.2-0.1,0.3-0.3,0.3h-21.5c-0.2,0-0.3-0.1-0.3-0.3v-47
		c0-0.2,0.1-0.3,0.3-0.3c0.2,0,0.3,0.1,0.3,0.3v46.7H538.3z"/>
	<path class="st2" d="M566,165.7c0.2,0,0.3,0.1,0.3,0.3c0,0.2-0.1,0.3-0.3,0.3h-21.3v22.9h16.9c0.2,0,0.3,0.1,0.3,0.3
		c0,0.2-0.1,0.3-0.3,0.3h-16.9v22.9H566c0.2,0,0.3,0.1,0.3,0.3c0,0.2-0.1,0.3-0.3,0.3h-21.6c-0.2,0-0.3-0.1-0.3-0.3V166
		c0-0.2,0.1-0.4,0.4-0.4H566z"/>
	<path class="st2" d="M587.9,193.6l-14.9-27.5c-0.2-0.4,0.4-0.7,0.5-0.3l14.6,27.1l14.8-27.1c0.2-0.4,0.8-0.1,0.5,0.3l-15.1,27.4
		v19.4c0,0.2-0.1,0.3-0.3,0.3c-0.2,0-0.3-0.1-0.3-0.3V193.6z"/>
</g>
<g>
	<path class="st3" d="M62,306c-4.2-2.9-9-4.2-14.2-4.2c-3.1,0-6.2,0.5-9.2,1.6c-8.7,3.3-14.8,12.5-14.8,22.6
		c0,5.6,1.8,11.2,5.6,15.6c4.2,5,11.4,7.9,18.4,7.9c3.3,0,6.6-0.7,9.4-2.1c1.8-0.9,3.3-1.9,4.8-3.2c0.3-0.2,0.6,0.1,0.4,0.4
		c-1.6,1.3-3.1,2.4-5,3.3c-2.9,1.5-6.2,2.1-9.6,2.1c-7.1,0-14.5-3-18.9-8.1c-3.8-4.5-5.7-10.2-5.7-16c0-9.7,5.6-19.5,15.1-23.2
		c3.1-1.1,6.2-1.6,9.4-1.6c5.3,0,10.2,1.4,14.5,4.4C62.5,305.7,62.3,306.1,62,306z"/>
	<path class="st3" d="M68.2,349.1c-0.2,0.4-0.7,0.2-0.5-0.2L86.9,302c0.1-0.3,0.5-0.3,0.6,0l19.1,46.9c0.1,0.4-0.4,0.6-0.6,0.2
		l-7.8-19.2H76.1L68.2,349.1z M76.3,329.3H98l-10.7-26.4L76.3,329.3z"/>
	<path class="st3" d="M116.2,302.1c0-0.2,0.1-0.3,0.3-0.3h5.7c10.2,0,16,4.6,16,12.8c0,6-3.1,10.8-8.4,12.6l21.1,21.6
		c0.3,0.3-0.2,0.7-0.5,0.4l-21.2-21.8c-0.3-0.3-0.1-0.5,0.1-0.6c5.6-1.9,8.4-6.7,8.4-12c0-8.2-6.1-12.4-15.4-12.4h-5.4V349
		c0,0.2-0.1,0.3-0.3,0.3c-0.2,0-0.3-0.1-0.3-0.3V302.1z"/>
	<path class="st3" d="M176.3,301.1c14,0.1,24,9,24.3,23.4c0.2,14-9.8,25.4-24.6,25.4c-16.9,0.1-24-13.1-24-24.4
		C152.1,315.7,159.3,301.1,176.3,301.1z M176,349.3c14.5-0.1,24.3-11.1,24-24.8c-0.3-13.9-10-22.7-23.7-22.8
		c-16.6-0.1-23.7,14.2-23.7,23.7C152.6,336.5,159.6,349.4,176,349.3z"/>
	<path class="st3" d="M233.2,348.7c0.2,0,0.3,0.1,0.3,0.3s-0.1,0.3-0.3,0.3h-21.5c-0.2,0-0.3-0.1-0.3-0.3v-47c0-0.2,0.1-0.3,0.3-0.3
		c0.2,0,0.3,0.1,0.3,0.3v46.7H233.2z"/>
	<path class="st3" d="M242.7,302.1c0-0.2,0.1-0.3,0.3-0.3c0.2,0,0.3,0.1,0.3,0.3v47c0,0.2-0.1,0.3-0.3,0.3c-0.2,0-0.3-0.1-0.3-0.3
		V302.1z"/>
	<path class="st3" d="M299.5,302.1c0-0.2,0.1-0.3,0.3-0.3c0.2,0,0.3,0.1,0.3,0.3V349c0,0.2-0.1,0.4-0.3,0.4c-0.1,0-0.2-0.1-0.4-0.2
		l-39.2-46.2V349c0,0.2-0.1,0.3-0.3,0.3c-0.2,0-0.3-0.1-0.3-0.3v-47c0-0.2,0.1-0.3,0.3-0.3c0.2,0,0.2,0.1,0.4,0.2l39.2,46.3V302.1z"
		/>
	<path class="st3" d="M334.7,301.8c0.2,0,0.3,0.1,0.3,0.3c0,0.2-0.1,0.3-0.3,0.3h-21.3v22.9h16.9c0.2,0,0.3,0.1,0.3,0.3
		c0,0.2-0.1,0.3-0.3,0.3h-16.9v22.9h21.3c0.2,0,0.3,0.1,0.3,0.3s-0.1,0.3-0.3,0.3h-21.6c-0.2,0-0.3-0.1-0.3-0.3v-46.9
		c0-0.2,0.1-0.4,0.4-0.4H334.7z"/>
	<path class="st3" d="M360.7,349.3c-0.2,0-0.4-0.2-0.4-0.4v-46.8c0.1-0.2,0.1-0.3,0.4-0.3h5.9c9.3,0,16,3,16,11.7
		c0,4.7-2.4,9.1-6.8,11.1c5.9,1.1,11.1,5.4,11.1,11.5c0,9.8-7.7,13.3-16.5,13.3H360.7z M360.9,324.4h14c4.5-2.1,7-6.2,7-11
		c0-9.3-7.8-11.1-15.5-11.1h-5.5V324.4z M374.7,325h-13.8v23.7h9.4c8.2,0,15.9-3.3,15.9-12.3C386.2,330,380.8,325.8,374.7,325z"/>
	<path class="st3" d="M419.4,301.1c14,0.1,24,9,24.3,23.4c0.2,14-9.8,25.4-24.6,25.4c-16.9,0.1-24-13.1-24-24.4
		C395.1,315.7,402.3,301.1,419.4,301.1z M419,349.3c14.5-0.1,24.3-11.1,24-24.8c-0.3-13.9-10-22.7-23.7-22.8
		c-16.6-0.1-23.7,14.2-23.7,23.7C395.6,336.5,402.6,349.4,419,349.3z"/>
	<path class="st3" d="M451.2,344.5c2.5,2.7,6.4,4.7,10,4.7c6.3,0,10.9-4.2,10.9-10.7c0-11.9-19.8-14.5-19.8-27.1
		c0-6.7,5.3-10.2,10.2-10.2c3.6,0,7.6,1.3,10,4.5c0.3,0.4-0.2,0.7-0.5,0.4c-2.3-3.2-6.4-4.4-9.6-4.4c-5.5,0-9.5,4.2-9.5,9.6
		c0,12.3,19.8,14.8,19.8,27.1c0,7.4-5.3,11.4-11.5,11.4c-3.8,0-7.6-1.8-10.5-4.9C450.5,344.6,450.9,344.2,451.2,344.5z"/>
	<path class="st3" d="M505.2,301.8c0.2,0,0.3,0.1,0.3,0.3c0,0.2-0.1,0.3-0.3,0.3h-21.3v22.9h16.9c0.2,0,0.3,0.1,0.3,0.3
		c0,0.2-0.1,0.3-0.3,0.3h-16.9v22.9h21.3c0.2,0,0.3,0.1,0.3,0.3s-0.1,0.3-0.3,0.3h-21.6c-0.2,0-0.3-0.1-0.3-0.3v-46.9
		c0-0.2,0.1-0.4,0.4-0.4H505.2z"/>
	<path class="st3" d="M537.8,348.7c0.2,0,0.3,0.1,0.3,0.3s-0.1,0.3-0.3,0.3h-21.5c-0.2,0-0.3-0.1-0.3-0.3v-47c0-0.2,0.1-0.3,0.3-0.3
		c0.2,0,0.3,0.1,0.3,0.3v46.7H537.8z"/>
	<path class="st3" d="M565.6,301.8c0.2,0,0.3,0.1,0.3,0.3c0,0.2-0.1,0.3-0.3,0.3h-21.3v22.9h16.9c0.2,0,0.3,0.1,0.3,0.3
		c0,0.2-0.1,0.3-0.3,0.3h-16.9v22.9h21.3c0.2,0,0.3,0.1,0.3,0.3s-0.1,0.3-0.3,0.3H544c-0.2,0-0.3-0.1-0.3-0.3v-46.9
		c0-0.2,0.1-0.4,0.4-0.4H565.6z"/>
	<path class="st3" d="M587.5,329.7l-14.9-27.5c-0.2-0.4,0.4-0.7,0.5-0.3l14.6,27.1l14.8-27.1c0.2-0.4,0.8-0.1,0.5,0.3l-15.1,27.4
		V349c0,0.2-0.1,0.3-0.3,0.3c-0.2,0-0.3-0.1-0.3-0.3V329.7z"/>
</g>
<g>
	<path class="st4" d="M62,435c-4.2-2.9-9-4.2-14.2-4.2c-3.1,0-6.2,0.5-9.2,1.6c-8.7,3.3-14.8,12.5-14.8,22.6
		c0,5.6,1.8,11.2,5.6,15.6c4.2,5,11.4,7.9,18.4,7.9c3.3,0,6.6-0.7,9.4-2.1c1.8-0.9,3.3-1.9,4.8-3.2c0.3-0.2,0.6,0.1,0.4,0.4
		c-1.6,1.3-3.1,2.4-5,3.3c-2.9,1.5-6.2,2.1-9.6,2.1c-7.1,0-14.5-3-18.9-8.1c-3.8-4.5-5.7-10.2-5.7-16c0-9.7,5.6-19.5,15.1-23.2
		c3.1-1.1,6.2-1.6,9.4-1.6c5.3,0,10.2,1.4,14.5,4.4C62.5,434.7,62.3,435.1,62,435z"/>
	<path class="st4" d="M68.2,478.1c-0.2,0.4-0.7,0.2-0.5-0.2L86.9,431c0.1-0.3,0.5-0.3,0.6,0l19.1,46.9c0.1,0.4-0.4,0.6-0.6,0.2
		l-7.8-19.2H76.1L68.2,478.1z M76.3,458.3H98l-10.7-26.4L76.3,458.3z"/>
	<path class="st4" d="M116.2,431.1c0-0.2,0.1-0.3,0.3-0.3h5.7c10.2,0,16,4.6,16,12.8c0,6-3.1,10.8-8.4,12.6l21.1,21.6
		c0.3,0.3-0.2,0.7-0.5,0.4l-21.2-21.8c-0.3-0.3-0.1-0.5,0.1-0.6c5.6-1.9,8.4-6.7,8.4-12c0-8.2-6.1-12.4-15.4-12.4h-5.4V478
		c0,0.2-0.1,0.3-0.3,0.3c-0.2,0-0.3-0.1-0.3-0.3V431.1z"/>
	<path class="st4" d="M176.3,430.1c14,0.1,24,9,24.3,23.4c0.2,14-9.8,25.4-24.6,25.4c-16.9,0.1-24-13.1-24-24.4
		C152.1,444.7,159.3,430.1,176.3,430.1z M176,478.3c14.5-0.1,24.3-11.1,24-24.8c-0.3-13.9-10-22.7-23.7-22.8
		c-16.6-0.1-23.7,14.2-23.7,23.7C152.6,465.5,159.6,478.4,176,478.3z"/>
	<path class="st4" d="M233.2,477.7c0.2,0,0.3,0.1,0.3,0.3s-0.1,0.3-0.3,0.3h-21.5c-0.2,0-0.3-0.1-0.3-0.3v-47c0-0.2,0.1-0.3,0.3-0.3
		c0.2,0,0.3,0.1,0.3,0.3v46.7H233.2z"/>
	<path class="st4" d="M242.7,431.1c0-0.2,0.1-0.3,0.3-0.3c0.2,0,0.3,0.1,0.3,0.3v47c0,0.2-0.1,0.3-0.3,0.3c-0.2,0-0.3-0.1-0.3-0.3
		V431.1z"/>
	<path class="st4" d="M299.5,431.1c0-0.2,0.1-0.3,0.3-0.3c0.2,0,0.3,0.1,0.3,0.3V478c0,0.2-0.1,0.4-0.3,0.4c-0.1,0-0.2-0.1-0.4-0.2
		l-39.2-46.2V478c0,0.2-0.1,0.3-0.3,0.3c-0.2,0-0.3-0.1-0.3-0.3v-47c0-0.2,0.1-0.3,0.3-0.3c0.2,0,0.2,0.1,0.4,0.2l39.2,46.3V431.1z"
		/>
	<path class="st4" d="M334.7,430.8c0.2,0,0.3,0.1,0.3,0.3c0,0.2-0.1,0.3-0.3,0.3h-21.3v22.9h16.9c0.2,0,0.3,0.1,0.3,0.3
		c0,0.2-0.1,0.3-0.3,0.3h-16.9v22.9h21.3c0.2,0,0.3,0.1,0.3,0.3s-0.1,0.3-0.3,0.3h-21.6c-0.2,0-0.3-0.1-0.3-0.3v-46.9
		c0-0.2,0.1-0.4,0.4-0.4H334.7z"/>
	<path class="st4" d="M360.7,478.3c-0.2,0-0.4-0.2-0.4-0.4v-46.8c0.1-0.2,0.1-0.3,0.4-0.3h5.9c9.3,0,16,3,16,11.7
		c0,4.7-2.4,9.1-6.8,11.1c5.9,1.1,11.1,5.4,11.1,11.5c0,9.8-7.7,13.3-16.5,13.3H360.7z M360.9,453.4h14c4.5-2.1,7-6.2,7-11
		c0-9.3-7.8-11.1-15.5-11.1h-5.5V453.4z M374.7,454h-13.8v23.7h9.4c8.2,0,15.9-3.3,15.9-12.3C386.2,459,380.8,454.8,374.7,454z"/>
	<path class="st4" d="M419.4,430.1c14,0.1,24,9,24.3,23.4c0.2,14-9.8,25.4-24.6,25.4c-16.9,0.1-24-13.1-24-24.4
		C395.1,444.7,402.3,430.1,419.4,430.1z M419,478.3c14.5-0.1,24.3-11.1,24-24.8c-0.3-13.9-10-22.7-23.7-22.8
		c-16.6-0.1-23.7,14.2-23.7,23.7C395.6,465.5,402.6,478.4,419,478.3z"/>
	<path class="st4" d="M451.2,473.5c2.5,2.7,6.4,4.7,10,4.7c6.3,0,10.9-4.2,10.9-10.7c0-11.9-19.8-14.5-19.8-27.1
		c0-6.7,5.3-10.2,10.2-10.2c3.6,0,7.6,1.3,10,4.5c0.3,0.4-0.2,0.7-0.5,0.4c-2.3-3.2-6.4-4.4-9.6-4.4c-5.5,0-9.5,4.2-9.5,9.6
		c0,12.3,19.8,14.8,19.8,27.1c0,7.4-5.3,11.4-11.5,11.4c-3.8,0-7.6-1.8-10.5-4.9C450.5,473.6,450.9,473.2,451.2,473.5z"/>
	<path class="st4" d="M505.2,430.8c0.2,0,0.3,0.1,0.3,0.3c0,0.2-0.1,0.3-0.3,0.3h-21.3v22.9h16.9c0.2,0,0.3,0.1,0.3,0.3
		c0,0.2-0.1,0.3-0.3,0.3h-16.9v22.9h21.3c0.2,0,0.3,0.1,0.3,0.3s-0.1,0.3-0.3,0.3h-21.6c-0.2,0-0.3-0.1-0.3-0.3v-46.9
		c0-0.2,0.1-0.4,0.4-0.4H505.2z"/>
	<path class="st4" d="M537.8,477.7c0.2,0,0.3,0.1,0.3,0.3s-0.1,0.3-0.3,0.3h-21.5c-0.2,0-0.3-0.1-0.3-0.3v-47c0-0.2,0.1-0.3,0.3-0.3
		c0.2,0,0.3,0.1,0.3,0.3v46.7H537.8z"/>
	<path class="st4" d="M565.6,430.8c0.2,0,0.3,0.1,0.3,0.3c0,0.2-0.1,0.3-0.3,0.3h-21.3v22.9h16.9c0.2,0,0.3,0.1,0.3,0.3
		c0,0.2-0.1,0.3-0.3,0.3h-16.9v22.9h21.3c0.2,0,0.3,0.1,0.3,0.3s-0.1,0.3-0.3,0.3H544c-0.2,0-0.3-0.1-0.3-0.3v-46.9
		c0-0.2,0.1-0.4,0.4-0.4H565.6z"/>
	<path class="st4" d="M587.5,458.7l-14.9-27.5c-0.2-0.4,0.4-0.7,0.5-0.3l14.6,27.1l14.8-27.1c0.2-0.4,0.8-0.1,0.5,0.3l-15.1,27.4
		V478c0,0.2-0.1,0.3-0.3,0.3c-0.2,0-0.3-0.1-0.3-0.3V458.7z"/>
</g>
<rect x="-116.8" y="-123.2" class="st5" width="90.8" height="32.2"/>
<text transform="matrix(1 0 0 1 -116.7676 -100.4663)" class="st6 st7">Black:</text>
<rect x="-226" y="41.1" class="st5" width="279" height="98.9"/>
<text transform="matrix(1 0 0 1 -226.0002 63.8107)" class="st6 st7">Colour Palette:</text>
</svg>
