<?xml version="1.0" encoding="utf-8"?>
<!-- Generator: Adobe Illustrator 24.3.0, SVG Export Plug-In . SVG Version: 6.00 Build 0)  -->
<svg version="1.1" id="Layer_1" xmlns="http://www.w3.org/2000/svg" xmlns:xlink="http://www.w3.org/1999/xlink" x="0px" y="0px"
	 viewBox="0 0 623.6 627.8" style="enable-background:new 0 0 623.6 627.8;" xml:space="preserve">
<style type="text/css">
	.st0{fill:#FFFFFF;}
	.st1{fill:#814834;}
</style>
<g>
	<path class="st0" d="M37.6,0c195,0,390,0,584.9,0c0,207.9,0,415.8,0,623.7c-207.2,0-414.3,0-621.5,0C1,515.5,1,407.2,1,299
		c12,0,24,0,36.8,0c0-78.4,0-155.2,0-233.6c185.7,185.7,370.3,370.3,555.1,555.1c9.2-9.2,17.2-17.2,27.6-27.5
		C435,407.4,249.8,222.2,63.9,36.4c78.4,0,156.4,0,235,0c0-11.8,0-22.7,0-35.1c-5.1,0-9.7,0-14.2,0c-78.1,0-156.3,0-234.4-0.1
		C46.1,1.2,41.8,0.4,37.6,0z"/>
	<path class="st1" d="M37.6,0c4.2,0.4,8.5,1.2,12.7,1.2c78.1,0.1,156.3,0.1,234.4,0.1c4.5,0,9.1,0,14.2,0c0,12.4,0,23.3,0,35.1
		c-78.5,0-156.5,0-235,0c185.9,185.8,371.1,371,556.6,556.5c-10.3,10.3-18.4,18.3-27.6,27.5C408.2,435.6,223.6,251.1,37.9,65.3
		c0,78.4,0,155.2,0,233.6c-12.8,0-24.8,0-36.8,0c0-99.6,0-199.3,0-298.9C13.2,0,25.4,0,37.6,0z"/>
</g>
</svg>
